<svg width="1733" height="1430" xmlns="http://www.w3.org/2000/svg" xmlns:xlink="http://www.w3.org/1999/xlink" xml:space="preserve" overflow="hidden"><g transform="translate(-1310 -522)"><g><path d="M2068 786.001C2068 761.7 2087.7 742 2112 742L2288 742C2312.3 742 2332 761.7 2332 786.001L2332 1688C2332 1712.3 2312.3 1732 2288 1732L2112 1732C2087.7 1732 2068 1712.3 2068 1688Z" fill="#C00000" fill-rule="evenodd" fill-opacity="1"/><path d="M1749 1370C1724.7 1370 1705 1350.3 1705 1326L1705 1150C1705 1125.7 1724.7 1106 1749 1106L2651 1106C2675.3 1106 2695 1125.7 2695 1150L2695 1326C2695 1350.3 2675.3 1370 2651 1370Z" fill="#C00000" fill-rule="evenodd" fill-opacity="1"/><path d="M2245.2 1947.63C2234.97 1944.39 2227.8 1939.19 2180.62 1899.15 2159.82 1881.37 2131.3 1857.32 2117.31 1845.47 1956.77 1709.55 1889.68 1652.45 1698.48 1489.07 1671.39 1465.73 1636.23 1435.92 1620.45 1422.64 1579.19 1387.81 1563.41 1371.83 1559.64 1360.87 1556.59 1351.54 1556.06 1342.38 1557.85 1333.22L1558.93 1327.84 1567.36 1331.43C1571.84 1333.4 1582.42 1335.92 1590.67 1337.17L1605.56 1339.33 1596.41 1350.28 1587.09 1361.41 1603.77 1375.06C1612.92 1382.78 1627.62 1394.99 1636.59 1402.53 1645.38 1410.25 1663.14 1425.33 1676.23 1436.1 1689.15 1447.06 1725.02 1477.58 1756.05 1504.15 1853.81 1588.18 1927.53 1651.02 2032.28 1739.71 2085.92 1785.14 2166.27 1853.37 2196.77 1879.22 2230.13 1907.41 2229.41 1906.87 2229.41 1901.66 2229.59 1894.66 2237.48 1874.37 2243.94 1865.04 2263.67 1836.13 2292.73 1815.3 2388.16 1761.98 2477.66 1712.06 2511.2 1689.98 2556.76 1651.38 2604.12 1611.16 2643.76 1564.3 2663.31 1525.52 2675.33 1501.46 2680.89 1479.01 2687.52 1428.56 2695.42 1369.13 2695.24 1369.31 2722.68 1354.23L2741.52 1344 2742.05 1328.56 2742.59 1313.11 2772.91 1313.11 2803.4 1313.11 2803.4 1331.07C2803.4 1346.15 2803.94 1349.02 2806.09 1349.02 2807.7 1349.02 2811.11 1350.1 2813.98 1351.54L2818.82 1354.23 2817.39 1368.23C2810.57 1434.49 2777.03 1508.64 2723.22 1576.15 2705.1 1598.95 2653.62 1651.38 2631.2 1669.87 2572.01 1718.53 2524.48 1747.61 2405.91 1807.58 2371.29 1825 2334.34 1844.57 2323.94 1850.67 2305.29 1861.8 2286.81 1874.91 2286.81 1876.89 2286.99 1877.42 2289.5 1879.4 2292.73 1881.37 2300.8 1886.58 2307.26 1898.97 2307.08 1909.38 2306.72 1938.29 2276.23 1957.14 2245.2 1947.63Z" fill="#000000" fill-rule="evenodd" fill-opacity="1"/><path d="M1463.61 1252.93 1484.06 1252.88 1433.37 1310.94 1515 1310.94 1565.08 1252.93 1583.88 1252.93 1533.24 1310.94 1632.63 1310.94 1682.7 1252.93 1682.7 1226.47 1632.68 1166.24 1533.19 1166.24 1584.02 1226.42 1565.12 1226.42 1515.05 1166.24 1433.37 1166.29 1484.16 1226.42 1463.56 1226.42 1413.53 1166.29 1311.73 1166.24 1373.8 1239.84 1311.68 1310.94 1413.53 1310.94 1463.61 1252.93Z" fill="#000000" fill-rule="evenodd" fill-opacity="1"/><rect x="1705" y="1219" width="990" height="36.0001" fill="#FFFFFF" fill-opacity="1"/><rect x="2182" y="741" width="35.9998" height="990" fill="#FFFFFF" fill-opacity="1"/><path d="M5.05259 173.933C5.05259 133.349 1.17772 153.278 0.451272 137.455-0.275175 121.632-0.0734041 94.9788 0.693542 78.9946 1.46049 63.0103 5.05259 80.9272 5.05259 41.5506 5.05259 18.6011 5.53676 0 6.26321 0 6.74775 0 12.802 3.14065 19.3407 7.24727 26.1214 11.1126 49.3698 23.9158 70.9228 35.9947 92.7184 47.8315 128.317 67.6407 150.355 80.2026 172.393 92.7644 192.493 103.877 195.156 104.843L200 106.534 195.156 109.191C192.493 110.641 149.628 135.04 99.9832 163.545 50.3386 191.809 8.68518 215 7.4742 215 6.0213 215 5.05259 199.298 5.05259 173.933Z" fill="#000000" fill-rule="evenodd" fill-opacity="1" transform="matrix(1 0 0 -1 2839 1344)"/><path d="M687.197 631.633C676.973 628.407 669.798 623.208 622.624 583.232 601.817 565.485 573.297 541.464 559.306 529.633 398.769 393.931 331.685 336.925 140.476 173.796 113.391 150.491 78.234 120.734 62.4494 107.468 21.1942 72.6911 5.40956 56.7366 1.64258 45.8017-1.40663 36.4799-1.94469 27.3375-0.151054 18.1951L0.925341 12.8172 9.35572 16.4026C13.8399 18.3745 24.4228 20.8841 32.6738 22.1389L47.5615 24.2902 38.4136 35.2251 29.0865 46.3394 45.7678 59.9633C54.9157 67.6719 69.6242 79.8616 78.5927 87.3908 87.3819 95.0991 105.14 110.157 118.234 120.913 131.148 131.848 167.022 162.323 198.054 188.854 295.811 272.749 369.532 335.491 474.284 424.047 527.916 469.4 608.274 537.52 638.767 563.334 672.13 591.479 671.413 590.941 671.413 585.742 671.592 578.751 679.484 558.494 685.942 549.172 705.672 520.311 734.73 499.516 830.156 446.275 919.661 396.44 953.204 374.391 998.764 335.849 1046.12 295.694 1085.76 248.907 1105.31 210.186 1117.33 186.165 1122.89 163.757 1129.53 113.384 1137.42 54.0477 1137.24 54.227 1164.68 39.1689L1183.52 28.951 1184.05 13.5343 1184.59-1.88223 1214.91-1.88223 1245.4-1.88223 1245.4 16.0439C1245.4 31.102 1245.94 33.9703 1248.09 33.9703 1249.7 33.9703 1253.11 35.0458 1255.98 36.4799L1260.82 39.1689 1259.39 53.1515C1252.57 119.3 1219.03 193.335 1165.22 260.738 1147.1 283.504 1095.62 335.849 1073.2 354.313 1014.01 402.894 966.477 431.934 847.914 491.808 813.295 509.197 776.345 528.736 765.941 534.831 747.286 545.946 728.811 559.032 728.811 561.004 728.991 561.541 731.502 563.513 734.73 565.485 742.802 570.684 749.26 583.053 749.08 593.45 748.721 622.312 718.228 641.134 687.197 631.633Z" fill="#000000" fill-rule="evenodd" fill-opacity="1" transform="matrix(1 0 0 -1 1558 1162)"/><path d="M2742 1225C2742 1221.69 2744.69 1219 2748 1219L2800 1219C2803.31 1219 2806 1221.69 2806 1225L2806 1249C2806 1252.31 2803.31 1255 2800 1255L2748 1255C2744.69 1255 2742 1252.31 2742 1249Z" fill="#000000" fill-rule="evenodd" fill-opacity="1"/></g></g></svg>